<?xml version="1.0" standalone="no"?>
<!DOCTYPE svg PUBLIC "-//W3C//DTD SVG 20010904//EN"
 "http://www.w3.org/TR/2001/REC-SVG-20010904/DTD/svg10.dtd">
<svg version="1.0" xmlns="http://www.w3.org/2000/svg"
 width="225.000000pt" height="225.000000pt" viewBox="0 0 225.000000 225.000000"
 preserveAspectRatio="xMidYMid meet">
<metadata>
Created by potrace 1.14, written by Peter Selinger 2001-2017
</metadata>
<g transform="translate(0.000000,225.000000) scale(0.100000,-0.100000)"
fill="#000000" stroke="none">
<path d="M945 1983 c-283 -60 -533 -271 -634 -533 -117 -302 -68 -626 132
-874 134 -167 318 -276 534 -317 81 -15 289 -6 367 15 295 82 524 297 614 576
94 292 31 613 -163 840 -174 203 -411 311 -677 309 -57 0 -134 -7 -173 -16z
m120 -594 c17 -18 18 -24 6 -52 -40 -95 -71 -267 -71 -388 0 -82 -11 -109 -45
-109 -43 0 -109 89 -151 204 l-22 60 -50 -100 c-78 -156 -121 -195 -156 -141
-32 48 -114 446 -101 487 8 26 36 40 63 33 25 -6 28 -17 62 -203 12 -69 25
-129 28 -133 2 -5 31 42 64 105 80 151 84 158 113 158 29 0 38 -16 55 -90 6
-30 19 -77 27 -105 l16 -50 18 105 c28 164 60 240 103 240 12 0 31 -9 41 -21z
m251 -58 c64 -29 89 -78 89 -176 0 -68 -4 -89 -28 -138 -39 -79 -84 -112 -153
-112 -64 0 -100 23 -131 85 -57 110 -2 294 100 341 52 23 71 23 123 0z m388
-9 c46 -27 71 -85 71 -167 0 -117 -50 -210 -129 -240 -79 -30 -147 -2 -187 78
-41 80 -9 249 58 309 53 48 125 56 187 20z"/>
<path d="M1212 1215 c-47 -60 -54 -158 -13 -199 l21 -20 27 20 c36 27 55 67
60 124 7 86 -51 132 -95 75z"/>
<path d="M1582 1215 c-47 -60 -54 -158 -13 -198 19 -19 21 -19 45 -3 51 33 81
144 54 196 -19 36 -60 38 -86 5z"/>
</g>
</svg>
